# xmcd CD database file generated by LOLA_Freedb v0.9beta0
# 
# Track frame offsets:
#      150
#      23107
#      44164
#      62519
#      82095
#      102456
#      127006
#      147716
#      165446
#      191991
#      210005
#      234447
#      254761
#      275428
# 
# Disc length: 4024 seconds
# 
# Revision: 0 
# Processed by: cddbd v1.5.2PL0 Copyright (c) Steve Scherf et al.
# Submitted via: LOLA_Freedb v0.9beta0
# 
DISCID=d40fb60e
DTITLE=Dixie Chicks - Taking the long Way
DYEAR=1900
DGENRE=
TTITLE0=The long Way around
TTITLE1=Easy Lilence
TTITLE2=Not ready to make nice
TTITLE3=Everybody knows
TTITLE4=Bitter End
TTITLE5=Lullaby
TTITLE6=Lubbock or leave it
TTITLE7=Silent House
TTITLE8=Favorite Year
TTITLE9=Voice inside my Head
TTITLE10=I like it
TTITLE11=Baby hold on
TTITLE12=So hard
TTITLE13=I hope
EXTD=
EXTT0=
EXTT1=
EXTT2=
EXTT3=
EXTT4=
EXTT5=
EXTT6=
EXTT7=
EXTT8=
EXTT9=
EXTT10=
EXTT11=
EXTT12=
EXTT13=
PLAYORDER=
